<svg xmlns="http://www.w3.org/2000/svg" viewBox="0 0 1200 630" width="1200" height="630">
  <defs>
    <linearGradient id="bg" x1="0%" y1="0%" x2="100%" y2="100%">
      <stop offset="0%" style="stop-color:#121212"/>
      <stop offset="100%" style="stop-color:#1a1a2e"/>
    </linearGradient>
    <linearGradient id="accent" x1="0%" y1="0%" x2="100%" y2="0%">
      <stop offset="0%" style="stop-color:#1db954"/>
      <stop offset="100%" style="stop-color:#1ed760"/>
    </linearGradient>
  </defs>
  <rect width="1200" height="630" fill="url(#bg)"/>
  <!-- Subtle grid -->
  <g stroke="#ffffff" stroke-opacity="0.03" stroke-width="1">
    <line x1="0" y1="0" x2="1200" y2="630"/>
    <line x1="1200" y1="0" x2="0" y2="630"/>
    <line x1="600" y1="0" x2="600" y2="630"/>
    <line x1="0" y1="315" x2="1200" y2="315"/>
    <line x1="0" y1="157" x2="1200" y2="157"/>
    <line x1="0" y1="472" x2="1200" y2="472"/>
  </g>
  <!-- Left accent bar -->
  <rect x="0" y="0" width="8" height="630" fill="url(#accent)"/>
  <!-- Wren bird silhouette -->
  <g transform="translate(80, 420)">
    <ellipse cx="80" cy="150" rx="55" ry="45" fill="#1db954" opacity="0.85"/>
    <circle cx="125" cy="115" r="28" fill="#1db954" opacity="0.85"/>
    <polygon points="153,115 172,120 153,126" fill="#1db954" opacity="0.85"/>
    <polygon points="25,130 0,165 25,175" fill="#1db954" opacity="0.75"/>
    <ellipse cx="75" cy="155" rx="30" ry="20" fill="#121212" opacity="0.2"/>
    <circle cx="132" cy="110" r="5" fill="#121212" opacity="0.5"/>
  </g>
  <!-- Main text -->
  <text x="240" y="290" font-family="DM Sans, Inter, system-ui, sans-serif" font-size="120" font-weight="900" fill="#ffffff" letter-spacing="-3">WREN</text>
  <rect x="240" y="310" width="300" height="6" fill="url(#accent)" rx="3"/>
  <text x="240" y="400" font-family="DM Sans, Inter, system-ui, sans-serif" font-size="36" fill="#a7a7a7">UK Private Security Compliance</text>
  <text x="240" y="450" font-family="DM Sans, Inter, system-ui, sans-serif" font-size="36" fill="#a7a7a7">Monitoring &amp; Alerting</text>
  <!-- Bottom bar -->
  <rect x="0" y="580" width="1200" height="50" fill="#121212" opacity="0.8"/>
  <text x="80" y="615" font-family="DM Sans, Inter, system-ui, sans-serif" font-size="24" fill="#535353">alvento.ltd</text>
  <text x="1120" y="615" font-family="DM Sans, Inter, system-ui, sans-serif" font-size="24" fill="#535353" text-anchor="end">Compliance Intelligence</text>
</svg>